<svg id="Layer_1" data-name="Layer 1" xmlns="http://www.w3.org/2000/svg" xmlnsXlink="http://www.w3.org/1999/xlink" viewBox="0 0 191.58 191.58">
  <defs>
    <linearGradient id="linear-gradient" x1="95.79" y1="264.57" x2="95.79" y2="-5.45" gradientUnits="userSpaceOnUse">
      <stop offset="0" stopColor="#273a9b"/>
      <stop offset="0.56" stopColor="#202f65"/>
      <stop offset="1" stopColor="#021e2f"/>
    </linearGradient>
    <linearGradient id="linear-gradient-2" x1="100.15" y1="306.63" x2="100.15" y2="88.99" xlinkHref="#linear-gradient"/>
    <linearGradient id="linear-gradient-3" x1="100.15" y1="171.96" x2="100.15" y2="-0.31" gradientUnits="userSpaceOnUse">
      <stop offset="0" stopColor="#27e9de"/>
      <stop offset="0.52" stopColor="#03a4ec"/>
      <stop offset="1" stopColor="#2547a8"/>
    </linearGradient>
  </defs>
  <g>
    <circle cx="95.79" cy="95.79" r="95.79" fill="url(#linear-gradient)"/>
    <path d="M50.8,113.42v68.31a95.14,95.14,0,0,0,98.7,0V113.42l-49.35-22Z" transform="translate(-4.36 -3.95)" fill="url(#linear-gradient-2)"/>
    <path d="M147.72,108.7,104.46,65.44a6.1,6.1,0,0,0-8.62,0L52.59,108.7a6.1,6.1,0,0,0,0,8.62l10.73,10.73a6.1,6.1,0,0,0,8.62,0l28.21-28.21,28.22,28.21a6.1,6.1,0,0,0,8.62,0l10.73-10.73A6.1,6.1,0,0,0,147.72,108.7Z" transform="translate(-4.36 -3.95)" fill="url(#linear-gradient-3)"/>
  </g>
</svg>
